<svg width="90" height="113" viewBox="0 0 90 113" fill="none" xmlns="http://www.w3.org/2000/svg">
<circle cx="45" cy="45" r="45" fill="#FC7900"/>
<path d="M56.0182 65H59.0364C60.5636 65 61.8182 63.8182 62 62.3273L65 32.3636H55.9091V25H52.3273V32.3636H43.2909L43.8364 36.6182C46.9455 37.4727 49.8545 39.0182 51.6 40.7273C54.2182 43.3091 56.0182 45.9818 56.0182 50.3455V65ZM25 63.1818V61.3636H52.3273V63.1818C52.3273 64.1636 51.5091 65 50.4545 65H26.8182C25.8182 65 25 64.1636 25 63.1818ZM52.3273 50.4545C52.3273 35.9091 25 35.9091 25 50.4545H52.3273ZM25 54.0909H52.2727V57.7273H25V54.0909Z" fill="white"/>
<path d="M14.1055 100.804C14.1975 100.784 14.3035 100.772 14.4235 100.768C14.5435 100.76 14.6475 100.756 14.7355 100.756C14.8395 100.756 14.9495 100.76 15.0655 100.768C15.1815 100.772 15.2875 100.784 15.3835 100.804V109C15.2875 109.016 15.1815 109.028 15.0655 109.036C14.9495 109.044 14.8395 109.048 14.7355 109.048C14.6475 109.048 14.5435 109.044 14.4235 109.036C14.3035 109.028 14.1975 109.016 14.1055 109V100.804ZM19.9795 108.67C19.8915 108.798 19.7655 108.898 19.6015 108.97C19.4375 109.038 19.2755 109.072 19.1155 109.072C18.8635 109.072 18.6815 109.008 18.5695 108.88C18.4615 108.752 18.3615 108.558 18.2695 108.298L17.6215 106.546C17.4535 106.086 17.2635 105.766 17.0515 105.586C16.8395 105.406 16.5555 105.316 16.1995 105.316C16.0715 105.316 15.8855 105.32 15.6415 105.328C15.3975 105.336 15.0915 105.352 14.7235 105.376V104.536H16.7875C17.1955 104.536 17.5235 104.596 17.7715 104.716C18.0195 104.832 18.2215 105.004 18.3775 105.232C18.5335 105.456 18.6715 105.732 18.7915 106.06L19.4455 107.794C19.5095 107.962 19.5675 108.1 19.6195 108.208C19.6755 108.316 19.7315 108.406 19.7875 108.478C19.8475 108.546 19.9115 108.61 19.9795 108.67ZM18.0535 101.284C18.1495 101.112 18.2475 100.984 18.3475 100.9C18.4475 100.812 18.6055 100.768 18.8215 100.768C18.9295 100.768 19.0455 100.77 19.1695 100.774C19.2975 100.778 19.4235 100.786 19.5475 100.798L19.6315 100.906L17.8135 103.984C17.6375 104.296 17.4155 104.542 17.1475 104.722C16.8835 104.902 16.5495 104.992 16.1455 104.992H14.7235V104.254C14.9275 104.246 15.1515 104.24 15.3955 104.236C15.6395 104.228 15.8595 104.224 16.0555 104.224C16.1755 104.224 16.2635 104.198 16.3195 104.146C16.3795 104.094 16.4435 104.008 16.5115 103.888L18.0535 101.284ZM23.1257 100.804C23.2257 100.788 23.3477 100.776 23.4917 100.768C23.6397 100.76 23.7657 100.756 23.8697 100.756C23.9697 100.756 24.0917 100.76 24.2357 100.768C24.3797 100.776 24.4957 100.79 24.5837 100.81L27.2777 108.922C27.1857 108.978 27.0717 109.018 26.9357 109.042C26.8037 109.07 26.6697 109.084 26.5337 109.084C26.3297 109.084 26.1717 109.038 26.0597 108.946C25.9517 108.854 25.8557 108.674 25.7717 108.406L24.4517 104.236C24.3397 103.888 24.2277 103.518 24.1157 103.126C24.0037 102.734 23.9037 102.38 23.8157 102.064H23.7557C23.7157 102.244 23.6657 102.44 23.6057 102.652C23.5497 102.864 23.4937 103.072 23.4377 103.276C23.3817 103.476 23.3317 103.65 23.2877 103.798L21.6317 109.012C21.5517 109.028 21.4637 109.04 21.3677 109.048C21.2757 109.056 21.1797 109.06 21.0797 109.06C20.9677 109.06 20.8557 109.052 20.7437 109.036C20.6357 109.02 20.5397 109 20.4557 108.976L20.4197 108.91L23.1257 100.804ZM22.9637 107.02C22.9277 107.02 22.8517 107.02 22.7357 107.02C22.6237 107.016 22.5097 107.014 22.3937 107.014C22.2817 107.01 22.2057 107.008 22.1657 107.008H21.5717L21.9677 105.97H22.4897C22.5297 105.97 22.5997 105.97 22.6997 105.97C22.7997 105.966 22.8997 105.964 22.9997 105.964C23.1037 105.96 23.1737 105.958 23.2097 105.958H24.4037C24.4437 105.958 24.5137 105.96 24.6137 105.964C24.7137 105.964 24.8157 105.966 24.9197 105.97C25.0277 105.97 25.0997 105.97 25.1357 105.97H25.6757L26.0177 107.008H25.4237C25.3837 107.008 25.3057 107.01 25.1897 107.014C25.0737 107.014 24.9577 107.016 24.8417 107.02C24.7297 107.02 24.6537 107.02 24.6137 107.02H22.9637ZM27.8756 108.256C27.8956 108.072 27.9576 107.89 28.0616 107.71C28.1696 107.526 28.2876 107.382 28.4156 107.278C28.7636 107.506 29.1496 107.698 29.5736 107.854C29.9976 108.01 30.4176 108.088 30.8336 108.088C31.3176 108.088 31.6916 107.982 31.9556 107.77C32.2236 107.558 32.3576 107.288 32.3576 106.96C32.3576 106.68 32.2636 106.432 32.0756 106.216C31.8876 105.996 31.6176 105.812 31.2656 105.664L29.8136 105.058C29.3096 104.842 28.9076 104.568 28.6076 104.236C28.3116 103.904 28.1636 103.482 28.1636 102.97C28.1636 102.534 28.2776 102.142 28.5056 101.794C28.7376 101.442 29.0576 101.164 29.4656 100.96C29.8736 100.752 30.3456 100.648 30.8816 100.648C31.3816 100.648 31.8516 100.712 32.2916 100.84C32.7316 100.968 33.1076 101.11 33.4196 101.266C33.4116 101.45 33.3656 101.634 33.2816 101.818C33.1976 101.998 33.0896 102.148 32.9576 102.268C32.6456 102.108 32.3016 101.974 31.9256 101.866C31.5536 101.758 31.2116 101.704 30.8996 101.704C30.4556 101.704 30.1056 101.812 29.8496 102.028C29.5976 102.244 29.4716 102.51 29.4716 102.826C29.4716 103.09 29.5636 103.306 29.7476 103.474C29.9316 103.642 30.1716 103.788 30.4676 103.912L31.9016 104.506C32.2416 104.65 32.5476 104.828 32.8196 105.04C33.0916 105.252 33.3056 105.5 33.4616 105.784C33.6176 106.068 33.6956 106.39 33.6956 106.75C33.6956 107.206 33.5876 107.618 33.3716 107.986C33.1556 108.35 32.8296 108.636 32.3936 108.844C31.9616 109.052 31.4156 109.156 30.7556 109.156C30.2596 109.156 29.7556 109.076 29.2436 108.916C28.7356 108.756 28.2796 108.536 27.8756 108.256ZM35.3056 100.804C35.3976 100.784 35.5016 100.772 35.6176 100.768C35.7376 100.76 35.8436 100.756 35.9356 100.756C36.0396 100.756 36.1496 100.76 36.2656 100.768C36.3816 100.772 36.4876 100.784 36.5836 100.804V109C36.4876 109.016 36.3816 109.028 36.2656 109.036C36.1496 109.044 36.0396 109.048 35.9356 109.048C35.8436 109.048 35.7376 109.044 35.6176 109.036C35.5016 109.028 35.3976 109.016 35.3056 109V100.804ZM41.8717 100.81C42.0157 100.782 42.1697 100.766 42.3337 100.762C42.5017 100.758 42.6357 100.756 42.7357 100.756C42.8397 100.756 42.9637 100.758 43.1077 100.762C43.2557 100.766 43.4017 100.782 43.5457 100.81L44.6857 104.566C44.7137 104.658 44.7517 104.792 44.7997 104.968C44.8477 105.144 44.8957 105.332 44.9437 105.532C44.9957 105.732 45.0417 105.918 45.0817 106.09C45.1217 106.262 45.1477 106.388 45.1597 106.468H45.2257C45.2377 106.388 45.2637 106.262 45.3037 106.09C45.3437 105.918 45.3897 105.732 45.4417 105.532C45.4937 105.332 45.5417 105.144 45.5857 104.968C45.6337 104.792 45.6717 104.658 45.6997 104.566L46.8457 100.81C46.9977 100.782 47.1437 100.766 47.2837 100.762C47.4277 100.758 47.5517 100.756 47.6557 100.756C47.7557 100.756 47.8857 100.758 48.0457 100.762C48.2097 100.766 48.3677 100.782 48.5197 100.81L49.1557 108.982C49.0637 109.006 48.9577 109.024 48.8377 109.036C48.7177 109.048 48.6057 109.054 48.5017 109.054C48.4017 109.054 48.3057 109.05 48.2137 109.042C48.1217 109.038 48.0277 109.028 47.9317 109.012L47.6497 104.626C47.6377 104.406 47.6257 104.152 47.6137 103.864C47.6017 103.576 47.5897 103.284 47.5777 102.988C47.5697 102.688 47.5617 102.42 47.5537 102.184H47.4877L45.8377 107.746C45.7417 107.762 45.6337 107.774 45.5137 107.782C45.3937 107.79 45.2837 107.794 45.1837 107.794C45.0917 107.794 44.9857 107.79 44.8657 107.782C44.7457 107.774 44.6397 107.762 44.5477 107.746L42.8977 102.184H42.8317C42.8237 102.42 42.8137 102.688 42.8017 102.988C42.7937 103.284 42.7837 103.576 42.7717 103.864C42.7637 104.152 42.7517 104.406 42.7357 104.626L42.4477 109.012C42.3557 109.028 42.2617 109.038 42.1657 109.042C42.0697 109.05 41.9717 109.054 41.8717 109.054C41.7677 109.054 41.6557 109.048 41.5357 109.036C41.4197 109.024 41.3197 109.006 41.2357 108.982L41.8717 100.81ZM51.1191 100.882L51.1971 100.804H52.3671V101.854C52.3671 102.022 52.3691 102.16 52.3731 102.268C52.3771 102.372 52.3791 102.506 52.3791 102.67V107.344C52.3791 107.452 52.3771 107.552 52.3731 107.644C52.3691 107.732 52.3671 107.834 52.3671 107.95V109.012H51.8511C51.6271 109.012 51.4491 108.942 51.3171 108.802C51.1851 108.662 51.1191 108.468 51.1191 108.22V100.882ZM55.3791 104.332C55.3991 104.412 55.4131 104.504 55.4211 104.608C55.4331 104.708 55.4391 104.792 55.4391 104.86C55.4391 104.932 55.4331 105.018 55.4211 105.118C55.4131 105.214 55.3991 105.306 55.3791 105.394H53.1231C53.0311 105.394 52.9151 105.394 52.7751 105.394C52.6351 105.39 52.4891 105.388 52.3371 105.388C52.1891 105.384 52.0551 105.38 51.9351 105.376V104.344C52.0551 104.344 52.1891 104.344 52.3371 104.344C52.4891 104.34 52.6351 104.338 52.7751 104.338C52.9151 104.334 53.0311 104.332 53.1231 104.332H55.3791ZM56.0271 100.804C56.0471 100.9 56.0591 100.992 56.0631 101.08C56.0671 101.164 56.0691 101.242 56.0691 101.314C56.0691 101.386 56.0611 101.476 56.0451 101.584C56.0331 101.688 56.0071 101.788 55.9671 101.884H53.1231C53.0311 101.884 52.9151 101.884 52.7751 101.884C52.6351 101.884 52.4891 101.884 52.3371 101.884C52.1891 101.88 52.0551 101.876 51.9351 101.872V100.804H56.0271ZM56.2611 107.926C56.2611 108.314 56.2011 108.592 56.0811 108.76C55.9651 108.928 55.7431 109.012 55.4151 109.012H51.9351V107.98C52.1271 107.968 52.3171 107.956 52.5051 107.944C52.6931 107.932 52.9111 107.926 53.1591 107.926H56.2611ZM59.7819 100.804C59.8819 100.788 60.0039 100.776 60.1479 100.768C60.2959 100.76 60.4219 100.756 60.5259 100.756C60.6259 100.756 60.7479 100.76 60.8919 100.768C61.0359 100.776 61.1519 100.79 61.2399 100.81L63.9339 108.922C63.8419 108.978 63.7279 109.018 63.5919 109.042C63.4599 109.07 63.3259 109.084 63.1899 109.084C62.9859 109.084 62.8279 109.038 62.7159 108.946C62.6079 108.854 62.5119 108.674 62.4279 108.406L61.1079 104.236C60.9959 103.888 60.8839 103.518 60.7719 103.126C60.6599 102.734 60.5599 102.38 60.4719 102.064H60.4119C60.3719 102.244 60.3219 102.44 60.2619 102.652C60.2059 102.864 60.1499 103.072 60.0939 103.276C60.0379 103.476 59.9879 103.65 59.9439 103.798L58.2879 109.012C58.2079 109.028 58.1199 109.04 58.0239 109.048C57.9319 109.056 57.8359 109.06 57.7359 109.06C57.6239 109.06 57.5119 109.052 57.3999 109.036C57.2919 109.02 57.1959 109 57.1119 108.976L57.0759 108.91L59.7819 100.804ZM59.6199 107.02C59.5839 107.02 59.5079 107.02 59.3919 107.02C59.2799 107.016 59.1659 107.014 59.0499 107.014C58.9379 107.01 58.8619 107.008 58.8219 107.008H58.2279L58.6239 105.97H59.1459C59.1859 105.97 59.2559 105.97 59.3559 105.97C59.4559 105.966 59.5559 105.964 59.6559 105.964C59.7599 105.96 59.8299 105.958 59.8659 105.958H61.0599C61.0999 105.958 61.1699 105.96 61.2699 105.964C61.3699 105.964 61.4719 105.966 61.5759 105.97C61.6839 105.97 61.7559 105.97 61.7919 105.97H62.3319L62.6739 107.008H62.0799C62.0399 107.008 61.9619 107.01 61.8459 107.014C61.7299 107.014 61.6139 107.016 61.4979 107.02C61.3859 107.02 61.3099 107.02 61.2699 107.02H59.6199ZM66.5359 109.012H65.9959C65.7799 109.012 65.6019 108.944 65.4619 108.808C65.3219 108.672 65.2519 108.474 65.2519 108.214V100.828L65.3299 100.756H65.8219C66.0819 100.756 66.2659 100.822 66.3739 100.954C66.4819 101.082 66.5359 101.286 66.5359 101.566V109.012ZM69.9859 107.896C69.9859 108.328 69.9199 108.622 69.7879 108.778C69.6559 108.934 69.4359 109.012 69.1279 109.012H65.9959L65.3359 108.076C65.7079 108.016 66.0959 107.972 66.4999 107.944C66.9039 107.912 67.2719 107.896 67.6039 107.896H69.9859ZM70.6725 108.256C70.6925 108.072 70.7545 107.89 70.8585 107.71C70.9665 107.526 71.0845 107.382 71.2125 107.278C71.5605 107.506 71.9465 107.698 72.3705 107.854C72.7945 108.01 73.2145 108.088 73.6305 108.088C74.1145 108.088 74.4885 107.982 74.7525 107.77C75.0205 107.558 75.1545 107.288 75.1545 106.96C75.1545 106.68 75.0605 106.432 74.8725 106.216C74.6845 105.996 74.4145 105.812 74.0625 105.664L72.6105 105.058C72.1065 104.842 71.7045 104.568 71.4045 104.236C71.1085 103.904 70.9605 103.482 70.9605 102.97C70.9605 102.534 71.0745 102.142 71.3025 101.794C71.5345 101.442 71.8545 101.164 72.2625 100.96C72.6705 100.752 73.1425 100.648 73.6785 100.648C74.1785 100.648 74.6485 100.712 75.0885 100.84C75.5285 100.968 75.9045 101.11 76.2165 101.266C76.2085 101.45 76.1625 101.634 76.0785 101.818C75.9945 101.998 75.8865 102.148 75.7545 102.268C75.4425 102.108 75.0985 101.974 74.7225 101.866C74.3505 101.758 74.0085 101.704 73.6965 101.704C73.2525 101.704 72.9025 101.812 72.6465 102.028C72.3945 102.244 72.2685 102.51 72.2685 102.826C72.2685 103.09 72.3605 103.306 72.5445 103.474C72.7285 103.642 72.9685 103.788 73.2645 103.912L74.6985 104.506C75.0385 104.65 75.3445 104.828 75.6165 105.04C75.8885 105.252 76.1025 105.5 76.2585 105.784C76.4145 106.068 76.4925 106.39 76.4925 106.75C76.4925 107.206 76.3845 107.618 76.1685 107.986C75.9525 108.35 75.6265 108.636 75.1905 108.844C74.7585 109.052 74.2125 109.156 73.5525 109.156C73.0565 109.156 72.5525 109.076 72.0405 108.916C71.5325 108.756 71.0765 108.536 70.6725 108.256Z" fill="#FC7900"/>
</svg>
